<?xml version="1.0" encoding="UTF-8" standalone="no"?>
<!DOCTYPE svg PUBLIC "-//W3C//DTD SVG 1.1//EN" "http://www.w3.org/Graphics/SVG/1.1/DTD/svg11.dtd">
<svg width="100%" height="100%" viewBox="0 0 166 112" version="1.1" xmlns="http://www.w3.org/2000/svg" xmlns:xlink="http://www.w3.org/1999/xlink" xml:space="preserve" xmlns:serif="http://www.serif.com/" style="fill-rule:evenodd;clip-rule:evenodd;stroke-linejoin:round;stroke-miterlimit:2;">
    <path fill="#ffffff"  d="M75.971,50L46,50L46,112L42,112L42,50L14,50L14,82L10,84L10,50L0,50L0,46L10,46L10,0L14,0L14,46L42,46L42,34L46,32L46,46L75.971,46L75.971,36.8L79.898,36.8L79.898,46L87.356,46L87.356,36.8L91.283,36.8L91.283,46L98.167,46L98.167,36.8L102.061,36.8L102.061,46L109.849,46L109.849,36.8L113.776,36.8L113.776,46L120.627,46L120.627,36.8L135.444,36.8L135.444,40.529L124.554,40.529L124.554,46L166,46L166,50L124.554,50L124.554,56.171L136.137,56.171L136.137,59.9L120.627,59.9L120.627,50L113.776,50L113.776,51.089C113.776,54.257 113.05,56.583 111.598,58.069C110.146,59.554 108.265,60.296 105.955,60.296C103.667,60.296 101.797,59.565 100.345,58.102C98.893,56.638 98.167,54.301 98.167,51.089L98.167,50L91.283,50L91.283,59.9L87.356,59.9L87.356,50L79.898,50L79.898,59.9L75.971,59.9L75.971,50ZM109.849,50L102.061,50L102.061,51.089C102.061,53.091 102.402,54.504 103.084,55.329C103.766,56.155 104.723,56.567 105.955,56.567C108.551,56.567 109.849,54.741 109.849,51.089L109.849,50Z"/>
</svg>
